<mxfile host="Electron" modified="2024-06-13T11:13:08.320Z" agent="Mozilla/5.0 (Windows NT 10.0; Win64; x64) AppleWebKit/537.36 (KHTML, like Gecko) draw.io/24.5.1 Chrome/124.0.6367.207 Electron/30.0.6 Safari/537.36" etag="_PFlviCC5kW5IGxIiWL4" version="24.5.1" type="device" pages="5">
  <diagram name="Page-1" id="eD_RjiYJVFQrhb2f61cJ">
    <mxGraphModel dx="1036" dy="614" grid="1" gridSize="10" guides="1" tooltips="1" connect="1" arrows="1" fold="1" page="1" pageScale="1" pageWidth="850" pageHeight="1100" math="0" shadow="0">
      <root>
        <mxCell id="0" />
        <mxCell id="1" parent="0" />
        <mxCell id="rNMRm5UlrXOLrCf-BVV9-1" value="" style="verticalLabelPosition=bottom;sketch=0;aspect=fixed;html=1;verticalAlign=top;strokeColor=none;align=center;outlineConnect=0;shape=mxgraph.citrix.laptop_2;" vertex="1" parent="1">
          <mxGeometry x="16.130000000000003" y="61.27" width="103.87" height="77.46" as="geometry" />
        </mxCell>
        <mxCell id="rNMRm5UlrXOLrCf-BVV9-2" value="" style="rounded=1;whiteSpace=wrap;html=1;" vertex="1" parent="1">
          <mxGeometry x="220" y="40" width="190" height="140" as="geometry" />
        </mxCell>
        <mxCell id="rNMRm5UlrXOLrCf-BVV9-3" value="Developers" style="strokeWidth=1;shadow=0;dashed=0;align=center;html=1;shape=mxgraph.mockup.text.textBox;fontColor=#666666;align=left;fontSize=17;spacingLeft=4;spacingTop=-3;whiteSpace=wrap;strokeColor=#666666;mainText=" vertex="1" parent="1">
          <mxGeometry x="30" y="140" width="100" height="20" as="geometry" />
        </mxCell>
        <mxCell id="rNMRm5UlrXOLrCf-BVV9-4" value="&lt;b style=&quot;font-size: 16px;&quot;&gt;&lt;font style=&quot;font-size: 16px;&quot;&gt;Code Repo&lt;/font&gt;&lt;/b&gt;&lt;div style=&quot;font-size: 16px;&quot;&gt;&lt;font style=&quot;font-size: 16px;&quot;&gt;+ source_code&lt;/font&gt;&lt;/div&gt;&lt;div style=&quot;font-size: 16px;&quot;&gt;&lt;font style=&quot;font-size: 16px;&quot;&gt;- Dockerfile&lt;/font&gt;&lt;/div&gt;&lt;div style=&quot;font-size: 16px;&quot;&gt;&lt;font style=&quot;font-size: 16px;&quot;&gt;- .gitlab-ci.yml&lt;/font&gt;&lt;/div&gt;" style="strokeWidth=1;shadow=0;dashed=0;align=center;html=1;shape=mxgraph.mockup.text.textBox;fontColor=#666666;align=left;fontSize=17;spacingLeft=4;spacingTop=-3;whiteSpace=wrap;strokeColor=#666666;mainText=" vertex="1" parent="1">
          <mxGeometry x="230" y="61.269999999999996" width="170" height="100" as="geometry" />
        </mxCell>
        <mxCell id="rNMRm5UlrXOLrCf-BVV9-5" value="" style="shape=image;html=1;verticalAlign=top;verticalLabelPosition=bottom;labelBackgroundColor=#ffffff;imageAspect=0;aspect=fixed;image=https://cdn4.iconfinder.com/data/icons/socialcones/508/Gitlab-128.png" vertex="1" parent="1">
          <mxGeometry x="350" y="70" width="40" height="40" as="geometry" />
        </mxCell>
        <mxCell id="rNMRm5UlrXOLrCf-BVV9-6" value="" style="shape=image;html=1;verticalAlign=top;verticalLabelPosition=bottom;labelBackgroundColor=#ffffff;imageAspect=0;aspect=fixed;image=https://cdn4.iconfinder.com/data/icons/socialcones/508/Gitlab-128.png" vertex="1" parent="1">
          <mxGeometry x="610" y="70" width="50" height="50" as="geometry" />
        </mxCell>
        <mxCell id="rNMRm5UlrXOLrCf-BVV9-7" value="" style="rounded=1;whiteSpace=wrap;html=1;" vertex="1" parent="1">
          <mxGeometry x="480" y="230" width="240" height="130" as="geometry" />
        </mxCell>
        <mxCell id="rNMRm5UlrXOLrCf-BVV9-8" value="&lt;b&gt;&lt;font style=&quot;font-size: 15px;&quot;&gt;Build &amp;amp; Code scan&lt;/font&gt;&lt;/b&gt;&lt;div style=&quot;font-size: 16px;&quot;&gt;&lt;font style=&quot;font-size: 16px;&quot;&gt;Maven build&lt;/font&gt;&lt;/div&gt;&lt;div style=&quot;font-size: 16px;&quot;&gt;&lt;font style=&quot;font-size: 16px;&quot;&gt;SonarQube Analysis&lt;/font&gt;&lt;/div&gt;&lt;div style=&quot;font-size: 16px;&quot;&gt;&lt;font style=&quot;font-size: 16px;&quot;&gt;OWASP depscan Analysis&lt;/font&gt;&lt;/div&gt;" style="strokeWidth=1;shadow=0;dashed=0;align=center;html=1;shape=mxgraph.mockup.text.textBox;fontColor=#666666;align=left;fontSize=17;spacingLeft=4;spacingTop=-3;whiteSpace=wrap;strokeColor=#666666;mainText=" vertex="1" parent="1">
          <mxGeometry x="500" y="240" width="200" height="100" as="geometry" />
        </mxCell>
        <mxCell id="rNMRm5UlrXOLrCf-BVV9-9" value="" style="rounded=1;whiteSpace=wrap;html=1;" vertex="1" parent="1">
          <mxGeometry x="510" y="60" width="160" height="100" as="geometry" />
        </mxCell>
        <mxCell id="rNMRm5UlrXOLrCf-BVV9-10" value="&lt;b&gt;&lt;font style=&quot;font-size: 15px;&quot;&gt;GitLab CI Pipeline&lt;/font&gt;&lt;/b&gt;" style="strokeWidth=1;shadow=0;dashed=0;align=center;html=1;shape=mxgraph.mockup.text.textBox;fontColor=#666666;align=left;fontSize=17;spacingLeft=4;spacingTop=-3;whiteSpace=wrap;strokeColor=#666666;mainText=" vertex="1" parent="1">
          <mxGeometry x="515" y="61.26999999999998" width="150" height="40" as="geometry" />
        </mxCell>
        <mxCell id="rNMRm5UlrXOLrCf-BVV9-11" value="" style="shape=image;html=1;verticalAlign=top;verticalLabelPosition=bottom;labelBackgroundColor=#ffffff;imageAspect=0;aspect=fixed;image=https://cdn4.iconfinder.com/data/icons/socialcones/508/Gitlab-128.png" vertex="1" parent="1">
          <mxGeometry x="560" y="110" width="41.27" height="41.27" as="geometry" />
        </mxCell>
        <mxCell id="rNMRm5UlrXOLrCf-BVV9-12" value="" style="rounded=1;whiteSpace=wrap;html=1;" vertex="1" parent="1">
          <mxGeometry x="500" y="440" width="200" height="120" as="geometry" />
        </mxCell>
        <mxCell id="rNMRm5UlrXOLrCf-BVV9-13" value="&lt;b&gt;&lt;font style=&quot;font-size: 15px;&quot;&gt;Docker Build&lt;/font&gt;&lt;/b&gt;" style="strokeWidth=1;shadow=0;dashed=0;align=center;html=1;shape=mxgraph.mockup.text.textBox;fontColor=#666666;align=left;fontSize=17;spacingLeft=4;spacingTop=-3;whiteSpace=wrap;strokeColor=#666666;mainText=" vertex="1" parent="1">
          <mxGeometry x="525" y="440" width="150" height="30" as="geometry" />
        </mxCell>
        <mxCell id="rNMRm5UlrXOLrCf-BVV9-14" value="" style="shape=image;html=1;verticalAlign=top;verticalLabelPosition=bottom;labelBackgroundColor=#ffffff;imageAspect=0;aspect=fixed;image=https://cdn1.iconfinder.com/data/icons/unicons-line-vol-3/24/docker-128.png" vertex="1" parent="1">
          <mxGeometry x="560" y="480" width="60" height="60" as="geometry" />
        </mxCell>
        <mxCell id="rNMRm5UlrXOLrCf-BVV9-15" value="" style="rounded=1;whiteSpace=wrap;html=1;" vertex="1" parent="1">
          <mxGeometry x="520" y="670" width="170" height="110" as="geometry" />
        </mxCell>
        <mxCell id="rNMRm5UlrXOLrCf-BVV9-16" value="&lt;span style=&quot;font-size: 15px;&quot;&gt;&lt;b&gt;GitLab Container&amp;nbsp; &amp;nbsp; &amp;nbsp; &amp;nbsp; &amp;nbsp; &amp;nbsp; &amp;nbsp; &amp;nbsp;Registry&lt;/b&gt;&lt;/span&gt;" style="strokeWidth=1;shadow=0;dashed=0;align=center;html=1;shape=mxgraph.mockup.text.textBox;fontColor=#666666;align=left;fontSize=17;spacingLeft=4;spacingTop=-3;whiteSpace=wrap;strokeColor=#666666;mainText=" vertex="1" parent="1">
          <mxGeometry x="530" y="670" width="150" height="40" as="geometry" />
        </mxCell>
        <mxCell id="rNMRm5UlrXOLrCf-BVV9-17" value="" style="shape=image;html=1;verticalAlign=top;verticalLabelPosition=bottom;labelBackgroundColor=#ffffff;imageAspect=0;aspect=fixed;image=https://cdn4.iconfinder.com/data/icons/socialcones/508/Gitlab-128.png" vertex="1" parent="1">
          <mxGeometry x="570" y="720" width="60" height="60" as="geometry" />
        </mxCell>
        <mxCell id="rNMRm5UlrXOLrCf-BVV9-18" value="" style="endArrow=classic;html=1;rounded=0;" edge="1" parent="1">
          <mxGeometry width="50" height="50" relative="1" as="geometry">
            <mxPoint x="120" y="110" as="sourcePoint" />
            <mxPoint x="220" y="110.5" as="targetPoint" />
          </mxGeometry>
        </mxCell>
        <mxCell id="rNMRm5UlrXOLrCf-BVV9-19" value="" style="endArrow=classic;html=1;rounded=0;" edge="1" parent="1">
          <mxGeometry width="50" height="50" relative="1" as="geometry">
            <mxPoint x="410" y="109" as="sourcePoint" />
            <mxPoint x="510" y="109.5" as="targetPoint" />
            <Array as="points">
              <mxPoint x="500" y="109" />
            </Array>
          </mxGeometry>
        </mxCell>
        <mxCell id="rNMRm5UlrXOLrCf-BVV9-20" value="" style="endArrow=classic;html=1;rounded=0;exitX=0.5;exitY=1;exitDx=0;exitDy=0;" edge="1" parent="1" source="rNMRm5UlrXOLrCf-BVV9-9">
          <mxGeometry width="50" height="50" relative="1" as="geometry">
            <mxPoint x="589.5" y="170" as="sourcePoint" />
            <mxPoint x="589.5" y="230" as="targetPoint" />
            <Array as="points">
              <mxPoint x="589.5" y="200" />
            </Array>
          </mxGeometry>
        </mxCell>
        <mxCell id="rNMRm5UlrXOLrCf-BVV9-21" value="" style="endArrow=classic;html=1;rounded=0;exitX=0.455;exitY=0.999;exitDx=0;exitDy=0;exitPerimeter=0;" edge="1" parent="1" source="rNMRm5UlrXOLrCf-BVV9-7">
          <mxGeometry width="50" height="50" relative="1" as="geometry">
            <mxPoint x="590.27" y="370" as="sourcePoint" />
            <mxPoint x="589.77" y="440" as="targetPoint" />
            <Array as="points">
              <mxPoint x="589.5" y="430" />
            </Array>
          </mxGeometry>
        </mxCell>
        <mxCell id="rNMRm5UlrXOLrCf-BVV9-22" value="" style="endArrow=classic;html=1;rounded=0;" edge="1" parent="1">
          <mxGeometry width="50" height="50" relative="1" as="geometry">
            <mxPoint x="590" y="560" as="sourcePoint" />
            <mxPoint x="590.27" y="670" as="targetPoint" />
            <Array as="points">
              <mxPoint x="590.5" y="650" />
              <mxPoint x="590" y="660" />
            </Array>
          </mxGeometry>
        </mxCell>
        <mxCell id="rNMRm5UlrXOLrCf-BVV9-23" value="&lt;font style=&quot;font-size: 11px;&quot;&gt;Commits code&lt;/font&gt;" style="strokeWidth=1;shadow=0;dashed=0;align=center;html=1;shape=mxgraph.mockup.text.textBox;fontColor=#666666;align=left;fontSize=17;spacingLeft=4;spacingTop=-3;whiteSpace=wrap;strokeColor=#666666;mainText=" vertex="1" parent="1">
          <mxGeometry x="130" y="80" width="80" height="30" as="geometry" />
        </mxCell>
        <mxCell id="rNMRm5UlrXOLrCf-BVV9-24" value="&lt;font style=&quot;font-size: 13px;&quot;&gt;Trigger&lt;/font&gt;" style="strokeWidth=1;shadow=0;dashed=0;align=center;html=1;shape=mxgraph.mockup.text.textBox;fontColor=#666666;align=left;fontSize=17;spacingLeft=4;spacingTop=-3;whiteSpace=wrap;strokeColor=#666666;mainText=" vertex="1" parent="1">
          <mxGeometry x="690" y="80" width="60" height="30" as="geometry" />
        </mxCell>
        <mxCell id="rNMRm5UlrXOLrCf-BVV9-25" value="&lt;font style=&quot;font-size: 13px;&quot;&gt;Docker Push&lt;/font&gt;" style="strokeWidth=1;shadow=0;dashed=0;align=center;html=1;shape=mxgraph.mockup.text.textBox;fontColor=#666666;align=left;fontSize=17;spacingLeft=4;spacingTop=-3;whiteSpace=wrap;strokeColor=#666666;mainText=" vertex="1" parent="1">
          <mxGeometry x="557" y="600" width="86" height="30" as="geometry" />
        </mxCell>
        <mxCell id="rNMRm5UlrXOLrCf-BVV9-26" value="" style="rounded=1;whiteSpace=wrap;html=1;align=left;" vertex="1" parent="1">
          <mxGeometry x="780" y="60" width="170" height="150" as="geometry" />
        </mxCell>
        <mxCell id="rNMRm5UlrXOLrCf-BVV9-27" value="&lt;font style=&quot;font-size: 14px;&quot;&gt;CD Repo&lt;/font&gt;" style="text;strokeColor=none;fillColor=none;html=1;fontSize=24;fontStyle=1;verticalAlign=middle;align=center;" vertex="1" parent="1">
          <mxGeometry x="770" y="60" width="100" height="40" as="geometry" />
        </mxCell>
        <mxCell id="rNMRm5UlrXOLrCf-BVV9-28" value="" style="shape=image;html=1;verticalAlign=top;verticalLabelPosition=bottom;labelBackgroundColor=#ffffff;imageAspect=0;aspect=fixed;image=https://cdn4.iconfinder.com/data/icons/socialcones/508/Gitlab-128.png" vertex="1" parent="1">
          <mxGeometry x="892" y="62" width="48" height="48" as="geometry" />
        </mxCell>
        <mxCell id="rNMRm5UlrXOLrCf-BVV9-29" value="&lt;span style=&quot;font-size: 15px; font-weight: normal;&quot;&gt;+ helm&lt;/span&gt;&lt;div&gt;&lt;span style=&quot;font-size: 15px; font-weight: normal;&quot;&gt;+ templates&lt;/span&gt;&lt;/div&gt;&lt;div&gt;&lt;span style=&quot;font-size: 15px; font-weight: normal;&quot;&gt;- chart.yaml&lt;/span&gt;&lt;/div&gt;&lt;div&gt;&lt;span style=&quot;font-size: 15px; font-weight: normal;&quot;&gt;- values.yaml&lt;/span&gt;&lt;/div&gt;" style="text;strokeColor=none;fillColor=none;html=1;fontSize=24;fontStyle=1;verticalAlign=middle;align=left;" vertex="1" parent="1">
          <mxGeometry x="790" y="90" width="120" height="120" as="geometry" />
        </mxCell>
        <mxCell id="rNMRm5UlrXOLrCf-BVV9-30" value="" style="endArrow=classic;html=1;rounded=0;entryX=-0.008;entryY=0.34;entryDx=0;entryDy=0;entryPerimeter=0;" edge="1" parent="1">
          <mxGeometry width="50" height="50" relative="1" as="geometry">
            <mxPoint x="670" y="108" as="sourcePoint" />
            <mxPoint x="778.6400000000001" y="110" as="targetPoint" />
            <Array as="points" />
          </mxGeometry>
        </mxCell>
        <mxCell id="rNMRm5UlrXOLrCf-BVV9-31" value="Package Helm Charts&lt;span style=&quot;color: rgba(0, 0, 0, 0); font-family: monospace; font-size: 0px; text-align: start; text-wrap: nowrap;&quot;&gt;%3CmxGraphModel%3E%3Croot%3E%3CmxCell%20id%3D%220%22%2F%3E%3CmxCell%20id%3D%221%22%20parent%3D%220%22%2F%3E%3CmxCell%20id%3D%222%22%20value%3D%22%22%20style%3D%22endArrow%3Dclassic%3Bhtml%3D1%3Brounded%3D0%3BexitX%3D0.455%3BexitY%3D0.999%3BexitDx%3D0%3BexitDy%3D0%3BexitPerimeter%3D0%3B%22%20edge%3D%221%22%20parent%3D%221%22%3E%3CmxGeometry%20width%3D%2250%22%20height%3D%2250%22%20relative%3D%221%22%20as%3D%22geometry%22%3E%3CmxPoint%20x%3D%22589%22%20y%3D%22360%22%20as%3D%22sourcePoint%22%2F%3E%3CmxPoint%20x%3D%22589.77%22%20y%3D%22440%22%20as%3D%22targetPoint%22%2F%3E%3CArray%20as%3D%22points%22%3E%3CmxPoint%20x%3D%22589.5%22%20y%3D%22430%22%2F%3E%3C%2FArray%3E%3C%2FmxGeometry%3E%3C%2FmxCell%3E%3C%2Froot%3E%3C%2FmxGraphModel%3E&lt;/span&gt;" style="rounded=1;whiteSpace=wrap;html=1;" vertex="1" parent="1">
          <mxGeometry x="790" y="290" width="170" height="120" as="geometry" />
        </mxCell>
        <mxCell id="rNMRm5UlrXOLrCf-BVV9-32" value="Automation Testing Using&amp;nbsp;&lt;div&gt;Karate Scripts&lt;/div&gt;" style="rounded=1;whiteSpace=wrap;html=1;" vertex="1" parent="1">
          <mxGeometry x="790" y="490" width="170" height="110" as="geometry" />
        </mxCell>
        <mxCell id="rNMRm5UlrXOLrCf-BVV9-33" value="" style="rounded=1;whiteSpace=wrap;html=1;" vertex="1" parent="1">
          <mxGeometry x="790" y="695" width="170" height="95" as="geometry" />
        </mxCell>
        <mxCell id="rNMRm5UlrXOLrCf-BVV9-34" value="" style="aspect=fixed;sketch=0;html=1;dashed=0;whitespace=wrap;verticalLabelPosition=bottom;verticalAlign=top;fillColor=#2875E2;strokeColor=#ffffff;points=[[0.005,0.63,0],[0.1,0.2,0],[0.9,0.2,0],[0.5,0,0],[0.995,0.63,0],[0.72,0.99,0],[0.5,1,0],[0.28,0.99,0]];shape=mxgraph.kubernetes.icon2;prIcon=api" vertex="1" parent="1">
          <mxGeometry x="840.41" y="709.1" width="69.59" height="66.8" as="geometry" />
        </mxCell>
        <mxCell id="rNMRm5UlrXOLrCf-BVV9-35" value="" style="endArrow=classic;html=1;rounded=0;exitX=0.455;exitY=0.999;exitDx=0;exitDy=0;exitPerimeter=0;" edge="1" parent="1">
          <mxGeometry width="50" height="50" relative="1" as="geometry">
            <mxPoint x="860" y="210" as="sourcePoint" />
            <mxPoint x="860.77" y="290" as="targetPoint" />
            <Array as="points">
              <mxPoint x="861" y="260" />
              <mxPoint x="860.5" y="280" />
            </Array>
          </mxGeometry>
        </mxCell>
        <mxCell id="rNMRm5UlrXOLrCf-BVV9-36" value="" style="endArrow=classic;html=1;rounded=0;exitX=0.455;exitY=0.999;exitDx=0;exitDy=0;exitPerimeter=0;" edge="1" parent="1">
          <mxGeometry width="50" height="50" relative="1" as="geometry">
            <mxPoint x="860" y="410" as="sourcePoint" />
            <mxPoint x="860.77" y="490" as="targetPoint" />
            <Array as="points">
              <mxPoint x="861" y="460" />
              <mxPoint x="860.5" y="480" />
            </Array>
          </mxGeometry>
        </mxCell>
        <mxCell id="rNMRm5UlrXOLrCf-BVV9-37" value="" style="endArrow=classic;html=1;rounded=0;exitX=0.456;exitY=0.991;exitDx=0;exitDy=0;exitPerimeter=0;" edge="1" parent="1" source="rNMRm5UlrXOLrCf-BVV9-32">
          <mxGeometry width="50" height="50" relative="1" as="geometry">
            <mxPoint x="864.5" y="615" as="sourcePoint" />
            <mxPoint x="865.27" y="695" as="targetPoint" />
            <Array as="points">
              <mxPoint x="865.5" y="665" />
              <mxPoint x="865.5" y="675" />
              <mxPoint x="865" y="685" />
            </Array>
          </mxGeometry>
        </mxCell>
        <mxCell id="rNMRm5UlrXOLrCf-BVV9-38" value="&lt;font style=&quot;font-size: 15px; font-weight: normal;&quot;&gt;Minikube&lt;/font&gt;" style="text;strokeColor=none;fillColor=none;html=1;fontSize=24;fontStyle=1;verticalAlign=middle;align=center;" vertex="1" parent="1">
          <mxGeometry x="780" y="690" width="100" height="40" as="geometry" />
        </mxCell>
        <mxCell id="rNMRm5UlrXOLrCf-BVV9-39" value="&lt;font style=&quot;font-size: 15px;&quot;&gt;Deploy&lt;/font&gt;" style="strokeWidth=1;shadow=0;dashed=0;align=center;html=1;shape=mxgraph.mockup.text.textBox;fontColor=#666666;align=left;fontSize=17;spacingLeft=4;spacingTop=-3;whiteSpace=wrap;strokeColor=#666666;mainText=" vertex="1" parent="1">
          <mxGeometry x="830" y="630" width="70" height="30" as="geometry" />
        </mxCell>
        <mxCell id="rNMRm5UlrXOLrCf-BVV9-40" value="&lt;font style=&quot;font-size: 13px;&quot;&gt;Trigger&lt;/font&gt;" style="strokeWidth=1;shadow=0;dashed=0;align=center;html=1;shape=mxgraph.mockup.text.textBox;fontColor=#666666;align=left;fontSize=17;spacingLeft=4;spacingTop=-3;whiteSpace=wrap;strokeColor=#666666;mainText=" vertex="1" parent="1">
          <mxGeometry x="430" y="80" width="60" height="30" as="geometry" />
        </mxCell>
      </root>
    </mxGraphModel>
  </diagram>
  <diagram id="XZkeXzi6qiZWx9rY5QHh" name="component-ci-flow">
    <mxGraphModel dx="1036" dy="614" grid="1" gridSize="10" guides="1" tooltips="1" connect="1" arrows="1" fold="1" page="1" pageScale="1" pageWidth="850" pageHeight="1100" math="0" shadow="0">
      <root>
        <mxCell id="0" />
        <mxCell id="1" parent="0" />
        <mxCell id="W7c10K6O_51GYTkrqslr-1" value="Pool" style="swimlane;childLayout=stackLayout;resizeParent=1;resizeParentMax=0;startSize=20;horizontal=0;horizontalStack=1;" parent="1" vertex="1">
          <mxGeometry x="30" y="30" width="1430" height="480" as="geometry" />
        </mxCell>
        <mxCell id="W7c10K6O_51GYTkrqslr-2" value="user desktop" style="swimlane;startSize=20;" parent="W7c10K6O_51GYTkrqslr-1" vertex="1">
          <mxGeometry x="20" width="240" height="480" as="geometry" />
        </mxCell>
        <mxCell id="W7c10K6O_51GYTkrqslr-7" value="developer commits code" style="rounded=1;whiteSpace=wrap;html=1;" parent="W7c10K6O_51GYTkrqslr-2" vertex="1">
          <mxGeometry x="40" y="30" width="120" height="60" as="geometry" />
        </mxCell>
        <mxCell id="W7c10K6O_51GYTkrqslr-3" value="gitlab" style="swimlane;startSize=20;" parent="W7c10K6O_51GYTkrqslr-1" vertex="1">
          <mxGeometry x="260" width="230" height="480" as="geometry" />
        </mxCell>
        <mxCell id="W7c10K6O_51GYTkrqslr-8" value="gitlab ci starts a pipeline" style="rounded=1;whiteSpace=wrap;html=1;" parent="W7c10K6O_51GYTkrqslr-3" vertex="1">
          <mxGeometry x="60" y="30" width="120" height="60" as="geometry" />
        </mxCell>
        <mxCell id="W7c10K6O_51GYTkrqslr-4" value="build server" style="swimlane;startSize=20;" parent="W7c10K6O_51GYTkrqslr-1" vertex="1">
          <mxGeometry x="490" width="230" height="480" as="geometry" />
        </mxCell>
        <mxCell id="W7c10K6O_51GYTkrqslr-13" style="edgeStyle=orthogonalEdgeStyle;rounded=0;orthogonalLoop=1;jettySize=auto;html=1;" parent="W7c10K6O_51GYTkrqslr-4" source="W7c10K6O_51GYTkrqslr-10" target="W7c10K6O_51GYTkrqslr-11" edge="1">
          <mxGeometry relative="1" as="geometry" />
        </mxCell>
        <mxCell id="W7c10K6O_51GYTkrqslr-10" value="compile" style="rounded=1;whiteSpace=wrap;html=1;" parent="W7c10K6O_51GYTkrqslr-4" vertex="1">
          <mxGeometry x="50" y="30" width="120" height="60" as="geometry" />
        </mxCell>
        <mxCell id="W7c10K6O_51GYTkrqslr-15" style="edgeStyle=orthogonalEdgeStyle;rounded=0;orthogonalLoop=1;jettySize=auto;html=1;" parent="W7c10K6O_51GYTkrqslr-4" source="W7c10K6O_51GYTkrqslr-11" target="W7c10K6O_51GYTkrqslr-14" edge="1">
          <mxGeometry relative="1" as="geometry" />
        </mxCell>
        <mxCell id="W7c10K6O_51GYTkrqslr-11" value="unit tests" style="rounded=1;whiteSpace=wrap;html=1;" parent="W7c10K6O_51GYTkrqslr-4" vertex="1">
          <mxGeometry x="50" y="120" width="120" height="60" as="geometry" />
        </mxCell>
        <mxCell id="W7c10K6O_51GYTkrqslr-18" style="edgeStyle=orthogonalEdgeStyle;rounded=0;orthogonalLoop=1;jettySize=auto;html=1;" parent="W7c10K6O_51GYTkrqslr-4" source="W7c10K6O_51GYTkrqslr-14" target="W7c10K6O_51GYTkrqslr-16" edge="1">
          <mxGeometry relative="1" as="geometry" />
        </mxCell>
        <mxCell id="W7c10K6O_51GYTkrqslr-14" value="sast code scan" style="rounded=1;whiteSpace=wrap;html=1;" parent="W7c10K6O_51GYTkrqslr-4" vertex="1">
          <mxGeometry x="50" y="210" width="120" height="60" as="geometry" />
        </mxCell>
        <mxCell id="W7c10K6O_51GYTkrqslr-27" style="edgeStyle=orthogonalEdgeStyle;rounded=0;orthogonalLoop=1;jettySize=auto;html=1;" parent="W7c10K6O_51GYTkrqslr-4" source="W7c10K6O_51GYTkrqslr-16" target="W7c10K6O_51GYTkrqslr-26" edge="1">
          <mxGeometry relative="1" as="geometry" />
        </mxCell>
        <mxCell id="W7c10K6O_51GYTkrqslr-16" value="dependencies scan" style="rounded=1;whiteSpace=wrap;html=1;" parent="W7c10K6O_51GYTkrqslr-4" vertex="1">
          <mxGeometry x="50" y="300" width="120" height="60" as="geometry" />
        </mxCell>
        <mxCell id="W7c10K6O_51GYTkrqslr-26" value="docker build" style="rounded=1;whiteSpace=wrap;html=1;" parent="W7c10K6O_51GYTkrqslr-4" vertex="1">
          <mxGeometry x="50" y="390" width="120" height="60" as="geometry" />
        </mxCell>
        <mxCell id="W7c10K6O_51GYTkrqslr-5" value="gitlab container registry" style="swimlane;startSize=20;" parent="W7c10K6O_51GYTkrqslr-1" vertex="1">
          <mxGeometry x="720" width="250" height="480" as="geometry" />
        </mxCell>
        <mxCell id="W7c10K6O_51GYTkrqslr-28" value="docker image" style="shape=document;whiteSpace=wrap;html=1;boundedLbl=1;" parent="W7c10K6O_51GYTkrqslr-5" vertex="1">
          <mxGeometry x="65" y="380" width="120" height="80" as="geometry" />
        </mxCell>
        <mxCell id="W7c10K6O_51GYTkrqslr-6" value="artifacts" style="swimlane;startSize=20;" parent="W7c10K6O_51GYTkrqslr-1" vertex="1">
          <mxGeometry x="970" width="230" height="480" as="geometry" />
        </mxCell>
        <mxCell id="W7c10K6O_51GYTkrqslr-24" value="depscan reports" style="shape=document;whiteSpace=wrap;html=1;boundedLbl=1;" parent="W7c10K6O_51GYTkrqslr-6" vertex="1">
          <mxGeometry x="60" y="290" width="120" height="80" as="geometry" />
        </mxCell>
        <mxCell id="W7c10K6O_51GYTkrqslr-9" style="edgeStyle=orthogonalEdgeStyle;rounded=0;orthogonalLoop=1;jettySize=auto;html=1;" parent="W7c10K6O_51GYTkrqslr-1" source="W7c10K6O_51GYTkrqslr-7" target="W7c10K6O_51GYTkrqslr-8" edge="1">
          <mxGeometry relative="1" as="geometry" />
        </mxCell>
        <mxCell id="W7c10K6O_51GYTkrqslr-12" style="edgeStyle=orthogonalEdgeStyle;rounded=0;orthogonalLoop=1;jettySize=auto;html=1;" parent="W7c10K6O_51GYTkrqslr-1" source="W7c10K6O_51GYTkrqslr-8" target="W7c10K6O_51GYTkrqslr-10" edge="1">
          <mxGeometry relative="1" as="geometry" />
        </mxCell>
        <mxCell id="W7c10K6O_51GYTkrqslr-19" value="sonarqube" style="swimlane;startSize=20;" parent="W7c10K6O_51GYTkrqslr-1" vertex="1">
          <mxGeometry x="1200" width="230" height="480" as="geometry" />
        </mxCell>
        <mxCell id="W7c10K6O_51GYTkrqslr-22" value="code quality data" style="shape=document;whiteSpace=wrap;html=1;boundedLbl=1;" parent="W7c10K6O_51GYTkrqslr-19" vertex="1">
          <mxGeometry x="70" y="200" width="120" height="80" as="geometry" />
        </mxCell>
        <mxCell id="W7c10K6O_51GYTkrqslr-23" style="edgeStyle=orthogonalEdgeStyle;rounded=0;orthogonalLoop=1;jettySize=auto;html=1;" parent="W7c10K6O_51GYTkrqslr-1" source="W7c10K6O_51GYTkrqslr-14" target="W7c10K6O_51GYTkrqslr-22" edge="1">
          <mxGeometry relative="1" as="geometry" />
        </mxCell>
        <mxCell id="W7c10K6O_51GYTkrqslr-25" style="edgeStyle=orthogonalEdgeStyle;rounded=0;orthogonalLoop=1;jettySize=auto;html=1;" parent="W7c10K6O_51GYTkrqslr-1" source="W7c10K6O_51GYTkrqslr-16" target="W7c10K6O_51GYTkrqslr-24" edge="1">
          <mxGeometry relative="1" as="geometry" />
        </mxCell>
        <mxCell id="W7c10K6O_51GYTkrqslr-29" style="edgeStyle=orthogonalEdgeStyle;rounded=0;orthogonalLoop=1;jettySize=auto;html=1;" parent="W7c10K6O_51GYTkrqslr-1" source="W7c10K6O_51GYTkrqslr-26" target="W7c10K6O_51GYTkrqslr-28" edge="1">
          <mxGeometry relative="1" as="geometry" />
        </mxCell>
      </root>
    </mxGraphModel>
  </diagram>
  <diagram name="library-ci-flow" id="vZAfel7jH5-NfbWE0n3u">
    <mxGraphModel dx="1036" dy="614" grid="1" gridSize="10" guides="1" tooltips="1" connect="1" arrows="1" fold="1" page="1" pageScale="1" pageWidth="850" pageHeight="1100" math="0" shadow="0">
      <root>
        <mxCell id="8nH-UDZZ13J1vMF4fmI5-0" />
        <mxCell id="8nH-UDZZ13J1vMF4fmI5-1" parent="8nH-UDZZ13J1vMF4fmI5-0" />
        <mxCell id="8nH-UDZZ13J1vMF4fmI5-2" value="Pool" style="swimlane;childLayout=stackLayout;resizeParent=1;resizeParentMax=0;startSize=20;horizontal=0;horizontalStack=1;" vertex="1" parent="8nH-UDZZ13J1vMF4fmI5-1">
          <mxGeometry x="30" y="30" width="1430" height="480" as="geometry" />
        </mxCell>
        <mxCell id="8nH-UDZZ13J1vMF4fmI5-3" value="user desktop" style="swimlane;startSize=20;" vertex="1" parent="8nH-UDZZ13J1vMF4fmI5-2">
          <mxGeometry x="20" width="240" height="480" as="geometry" />
        </mxCell>
        <mxCell id="8nH-UDZZ13J1vMF4fmI5-4" value="developer commits code" style="rounded=1;whiteSpace=wrap;html=1;" vertex="1" parent="8nH-UDZZ13J1vMF4fmI5-3">
          <mxGeometry x="40" y="30" width="120" height="60" as="geometry" />
        </mxCell>
        <mxCell id="8nH-UDZZ13J1vMF4fmI5-5" value="gitlab" style="swimlane;startSize=20;" vertex="1" parent="8nH-UDZZ13J1vMF4fmI5-2">
          <mxGeometry x="260" width="230" height="480" as="geometry" />
        </mxCell>
        <mxCell id="8nH-UDZZ13J1vMF4fmI5-6" value="gitlab ci starts a pipeline" style="rounded=1;whiteSpace=wrap;html=1;" vertex="1" parent="8nH-UDZZ13J1vMF4fmI5-5">
          <mxGeometry x="60" y="30" width="120" height="60" as="geometry" />
        </mxCell>
        <mxCell id="8nH-UDZZ13J1vMF4fmI5-7" value="build server" style="swimlane;startSize=20;" vertex="1" parent="8nH-UDZZ13J1vMF4fmI5-2">
          <mxGeometry x="490" width="230" height="480" as="geometry" />
        </mxCell>
        <mxCell id="8nH-UDZZ13J1vMF4fmI5-8" style="edgeStyle=orthogonalEdgeStyle;rounded=0;orthogonalLoop=1;jettySize=auto;html=1;" edge="1" parent="8nH-UDZZ13J1vMF4fmI5-7" source="8nH-UDZZ13J1vMF4fmI5-9" target="8nH-UDZZ13J1vMF4fmI5-11">
          <mxGeometry relative="1" as="geometry" />
        </mxCell>
        <mxCell id="8nH-UDZZ13J1vMF4fmI5-9" value="compile" style="rounded=1;whiteSpace=wrap;html=1;" vertex="1" parent="8nH-UDZZ13J1vMF4fmI5-7">
          <mxGeometry x="50" y="30" width="120" height="60" as="geometry" />
        </mxCell>
        <mxCell id="8nH-UDZZ13J1vMF4fmI5-10" style="edgeStyle=orthogonalEdgeStyle;rounded=0;orthogonalLoop=1;jettySize=auto;html=1;" edge="1" parent="8nH-UDZZ13J1vMF4fmI5-7" source="8nH-UDZZ13J1vMF4fmI5-11" target="8nH-UDZZ13J1vMF4fmI5-13">
          <mxGeometry relative="1" as="geometry" />
        </mxCell>
        <mxCell id="8nH-UDZZ13J1vMF4fmI5-11" value="unit tests" style="rounded=1;whiteSpace=wrap;html=1;" vertex="1" parent="8nH-UDZZ13J1vMF4fmI5-7">
          <mxGeometry x="50" y="120" width="120" height="60" as="geometry" />
        </mxCell>
        <mxCell id="8nH-UDZZ13J1vMF4fmI5-12" style="edgeStyle=orthogonalEdgeStyle;rounded=0;orthogonalLoop=1;jettySize=auto;html=1;" edge="1" parent="8nH-UDZZ13J1vMF4fmI5-7" source="8nH-UDZZ13J1vMF4fmI5-13" target="8nH-UDZZ13J1vMF4fmI5-15">
          <mxGeometry relative="1" as="geometry" />
        </mxCell>
        <mxCell id="8nH-UDZZ13J1vMF4fmI5-13" value="sast code scan" style="rounded=1;whiteSpace=wrap;html=1;" vertex="1" parent="8nH-UDZZ13J1vMF4fmI5-7">
          <mxGeometry x="50" y="210" width="120" height="60" as="geometry" />
        </mxCell>
        <mxCell id="8nH-UDZZ13J1vMF4fmI5-14" style="edgeStyle=orthogonalEdgeStyle;rounded=0;orthogonalLoop=1;jettySize=auto;html=1;" edge="1" parent="8nH-UDZZ13J1vMF4fmI5-7" source="8nH-UDZZ13J1vMF4fmI5-15" target="8nH-UDZZ13J1vMF4fmI5-16">
          <mxGeometry relative="1" as="geometry" />
        </mxCell>
        <mxCell id="8nH-UDZZ13J1vMF4fmI5-15" value="dependencies scan" style="rounded=1;whiteSpace=wrap;html=1;" vertex="1" parent="8nH-UDZZ13J1vMF4fmI5-7">
          <mxGeometry x="50" y="300" width="120" height="60" as="geometry" />
        </mxCell>
        <mxCell id="8nH-UDZZ13J1vMF4fmI5-16" value="maven package" style="rounded=1;whiteSpace=wrap;html=1;" vertex="1" parent="8nH-UDZZ13J1vMF4fmI5-7">
          <mxGeometry x="50" y="390" width="120" height="60" as="geometry" />
        </mxCell>
        <mxCell id="8nH-UDZZ13J1vMF4fmI5-17" value="reposilite (artifactory)" style="swimlane;startSize=20;" vertex="1" parent="8nH-UDZZ13J1vMF4fmI5-2">
          <mxGeometry x="720" width="250" height="480" as="geometry" />
        </mxCell>
        <mxCell id="8nH-UDZZ13J1vMF4fmI5-18" value="Library Package&lt;br&gt;( eg:- Java archive )" style="shape=document;whiteSpace=wrap;html=1;boundedLbl=1;" vertex="1" parent="8nH-UDZZ13J1vMF4fmI5-17">
          <mxGeometry x="65" y="380" width="120" height="80" as="geometry" />
        </mxCell>
        <mxCell id="8nH-UDZZ13J1vMF4fmI5-19" value="artifacts" style="swimlane;startSize=20;" vertex="1" parent="8nH-UDZZ13J1vMF4fmI5-2">
          <mxGeometry x="970" width="230" height="480" as="geometry" />
        </mxCell>
        <mxCell id="8nH-UDZZ13J1vMF4fmI5-20" value="depscan reports" style="shape=document;whiteSpace=wrap;html=1;boundedLbl=1;" vertex="1" parent="8nH-UDZZ13J1vMF4fmI5-19">
          <mxGeometry x="60" y="290" width="120" height="80" as="geometry" />
        </mxCell>
        <mxCell id="8nH-UDZZ13J1vMF4fmI5-21" style="edgeStyle=orthogonalEdgeStyle;rounded=0;orthogonalLoop=1;jettySize=auto;html=1;" edge="1" parent="8nH-UDZZ13J1vMF4fmI5-2" source="8nH-UDZZ13J1vMF4fmI5-4" target="8nH-UDZZ13J1vMF4fmI5-6">
          <mxGeometry relative="1" as="geometry" />
        </mxCell>
        <mxCell id="8nH-UDZZ13J1vMF4fmI5-22" style="edgeStyle=orthogonalEdgeStyle;rounded=0;orthogonalLoop=1;jettySize=auto;html=1;" edge="1" parent="8nH-UDZZ13J1vMF4fmI5-2" source="8nH-UDZZ13J1vMF4fmI5-6" target="8nH-UDZZ13J1vMF4fmI5-9">
          <mxGeometry relative="1" as="geometry" />
        </mxCell>
        <mxCell id="8nH-UDZZ13J1vMF4fmI5-23" value="sonarqube" style="swimlane;startSize=20;" vertex="1" parent="8nH-UDZZ13J1vMF4fmI5-2">
          <mxGeometry x="1200" width="230" height="480" as="geometry" />
        </mxCell>
        <mxCell id="8nH-UDZZ13J1vMF4fmI5-24" value="code quality data" style="shape=document;whiteSpace=wrap;html=1;boundedLbl=1;" vertex="1" parent="8nH-UDZZ13J1vMF4fmI5-23">
          <mxGeometry x="70" y="200" width="120" height="80" as="geometry" />
        </mxCell>
        <mxCell id="8nH-UDZZ13J1vMF4fmI5-25" style="edgeStyle=orthogonalEdgeStyle;rounded=0;orthogonalLoop=1;jettySize=auto;html=1;" edge="1" parent="8nH-UDZZ13J1vMF4fmI5-2" source="8nH-UDZZ13J1vMF4fmI5-13" target="8nH-UDZZ13J1vMF4fmI5-24">
          <mxGeometry relative="1" as="geometry" />
        </mxCell>
        <mxCell id="8nH-UDZZ13J1vMF4fmI5-26" style="edgeStyle=orthogonalEdgeStyle;rounded=0;orthogonalLoop=1;jettySize=auto;html=1;" edge="1" parent="8nH-UDZZ13J1vMF4fmI5-2" source="8nH-UDZZ13J1vMF4fmI5-15" target="8nH-UDZZ13J1vMF4fmI5-20">
          <mxGeometry relative="1" as="geometry" />
        </mxCell>
        <mxCell id="8nH-UDZZ13J1vMF4fmI5-27" style="edgeStyle=orthogonalEdgeStyle;rounded=0;orthogonalLoop=1;jettySize=auto;html=1;" edge="1" parent="8nH-UDZZ13J1vMF4fmI5-2" source="8nH-UDZZ13J1vMF4fmI5-16" target="8nH-UDZZ13J1vMF4fmI5-18">
          <mxGeometry relative="1" as="geometry" />
        </mxCell>
      </root>
    </mxGraphModel>
  </diagram>
  <diagram name="application-ci-flow" id="om9kASalnD_qbAt5HZXF">
    <mxGraphModel grid="1" page="1" gridSize="10" guides="1" tooltips="1" connect="1" arrows="1" fold="1" pageScale="1" pageWidth="850" pageHeight="1100" math="0" shadow="0">
      <root>
        <mxCell id="2yx346TZUJ-6V80JJ5rB-0" />
        <mxCell id="2yx346TZUJ-6V80JJ5rB-1" parent="2yx346TZUJ-6V80JJ5rB-0" />
        <mxCell id="2yx346TZUJ-6V80JJ5rB-2" value="Pool" style="swimlane;childLayout=stackLayout;resizeParent=1;resizeParentMax=0;startSize=20;horizontal=0;horizontalStack=1;" parent="2yx346TZUJ-6V80JJ5rB-1" vertex="1">
          <mxGeometry x="30" y="30" width="1430" height="580" as="geometry" />
        </mxCell>
        <mxCell id="2yx346TZUJ-6V80JJ5rB-3" value="user desktop" style="swimlane;startSize=20;" parent="2yx346TZUJ-6V80JJ5rB-2" vertex="1">
          <mxGeometry x="20" width="240" height="580" as="geometry" />
        </mxCell>
        <mxCell id="2yx346TZUJ-6V80JJ5rB-4" value="devops changes manifests" style="rounded=1;whiteSpace=wrap;html=1;" parent="2yx346TZUJ-6V80JJ5rB-3" vertex="1">
          <mxGeometry x="40" y="30" width="120" height="60" as="geometry" />
        </mxCell>
        <mxCell id="2yx346TZUJ-6V80JJ5rB-5" value="gitlab" style="swimlane;startSize=20;" parent="2yx346TZUJ-6V80JJ5rB-2" vertex="1">
          <mxGeometry x="260" width="230" height="580" as="geometry" />
        </mxCell>
        <mxCell id="2yx346TZUJ-6V80JJ5rB-6" value="gitlab ci starts a pipeline" style="rounded=1;whiteSpace=wrap;html=1;" parent="2yx346TZUJ-6V80JJ5rB-5" vertex="1">
          <mxGeometry x="60" y="30" width="120" height="60" as="geometry" />
        </mxCell>
        <mxCell id="2yx346TZUJ-6V80JJ5rB-7" value="build server" style="swimlane;startSize=20;" parent="2yx346TZUJ-6V80JJ5rB-2" vertex="1">
          <mxGeometry x="490" width="230" height="580" as="geometry" />
        </mxCell>
        <mxCell id="2yx346TZUJ-6V80JJ5rB-8" style="edgeStyle=orthogonalEdgeStyle;rounded=0;orthogonalLoop=1;jettySize=auto;html=1;" parent="2yx346TZUJ-6V80JJ5rB-7" source="2yx346TZUJ-6V80JJ5rB-9" target="2yx346TZUJ-6V80JJ5rB-11" edge="1">
          <mxGeometry relative="1" as="geometry" />
        </mxCell>
        <mxCell id="2yx346TZUJ-6V80JJ5rB-9" value="build helm data package" style="rounded=1;whiteSpace=wrap;html=1;" parent="2yx346TZUJ-6V80JJ5rB-7" vertex="1">
          <mxGeometry x="50" y="30" width="120" height="60" as="geometry" />
        </mxCell>
        <mxCell id="2yx346TZUJ-6V80JJ5rB-10" style="edgeStyle=orthogonalEdgeStyle;rounded=0;orthogonalLoop=1;jettySize=auto;html=1;" parent="2yx346TZUJ-6V80JJ5rB-7" source="2yx346TZUJ-6V80JJ5rB-11" target="2yx346TZUJ-6V80JJ5rB-13" edge="1">
          <mxGeometry relative="1" as="geometry" />
        </mxCell>
        <mxCell id="2yx346TZUJ-6V80JJ5rB-11" value="build helm allfunds package" style="rounded=1;whiteSpace=wrap;html=1;" parent="2yx346TZUJ-6V80JJ5rB-7" vertex="1">
          <mxGeometry x="50" y="120" width="120" height="60" as="geometry" />
        </mxCell>
        <mxCell id="2yx346TZUJ-6V80JJ5rB-12" style="edgeStyle=orthogonalEdgeStyle;rounded=0;orthogonalLoop=1;jettySize=auto;html=1;" parent="2yx346TZUJ-6V80JJ5rB-7" source="2yx346TZUJ-6V80JJ5rB-13" target="2yx346TZUJ-6V80JJ5rB-15" edge="1">
          <mxGeometry relative="1" as="geometry" />
        </mxCell>
        <mxCell id="2yx346TZUJ-6V80JJ5rB-13" value="build helm accounitng package" style="rounded=1;whiteSpace=wrap;html=1;" parent="2yx346TZUJ-6V80JJ5rB-7" vertex="1">
          <mxGeometry x="50" y="210" width="120" height="60" as="geometry" />
        </mxCell>
        <mxCell id="2yx346TZUJ-6V80JJ5rB-14" style="edgeStyle=orthogonalEdgeStyle;rounded=0;orthogonalLoop=1;jettySize=auto;html=1;" parent="2yx346TZUJ-6V80JJ5rB-7" source="2yx346TZUJ-6V80JJ5rB-15" target="2yx346TZUJ-6V80JJ5rB-16" edge="1">
          <mxGeometry relative="1" as="geometry" />
        </mxCell>
        <mxCell id="2yx346TZUJ-6V80JJ5rB-15" value="delete automation" style="rounded=1;whiteSpace=wrap;html=1;" parent="2yx346TZUJ-6V80JJ5rB-7" vertex="1">
          <mxGeometry x="50" y="300" width="120" height="60" as="geometry" />
        </mxCell>
        <mxCell id="bylwXaz0VcdVEE2ZYzo4-3" style="edgeStyle=orthogonalEdgeStyle;rounded=0;orthogonalLoop=1;jettySize=auto;html=1;entryX=0.5;entryY=0;entryDx=0;entryDy=0;" edge="1" parent="2yx346TZUJ-6V80JJ5rB-7" source="2yx346TZUJ-6V80JJ5rB-16" target="bylwXaz0VcdVEE2ZYzo4-2">
          <mxGeometry relative="1" as="geometry" />
        </mxCell>
        <mxCell id="9xAP8w53JDJXSFbGVJ0_-4" style="edgeStyle=orthogonalEdgeStyle;rounded=0;orthogonalLoop=1;jettySize=auto;html=1;entryX=0.5;entryY=0;entryDx=0;entryDy=0;" edge="1" parent="2yx346TZUJ-6V80JJ5rB-7" source="2yx346TZUJ-6V80JJ5rB-16" target="9xAP8w53JDJXSFbGVJ0_-2">
          <mxGeometry relative="1" as="geometry" />
        </mxCell>
        <mxCell id="2yx346TZUJ-6V80JJ5rB-16" value="Install automation" style="rounded=1;whiteSpace=wrap;html=1;" parent="2yx346TZUJ-6V80JJ5rB-7" vertex="1">
          <mxGeometry x="50" y="400" width="120" height="60" as="geometry" />
        </mxCell>
        <mxCell id="bylwXaz0VcdVEE2ZYzo4-2" value="Run automation tests" style="rounded=1;whiteSpace=wrap;html=1;" vertex="1" parent="2yx346TZUJ-6V80JJ5rB-7">
          <mxGeometry x="50" y="500" width="120" height="60" as="geometry" />
        </mxCell>
        <mxCell id="9xAP8w53JDJXSFbGVJ0_-6" style="edgeStyle=orthogonalEdgeStyle;rounded=0;orthogonalLoop=1;jettySize=auto;html=1;" edge="1" parent="2yx346TZUJ-6V80JJ5rB-7" source="9xAP8w53JDJXSFbGVJ0_-2">
          <mxGeometry relative="1" as="geometry">
            <mxPoint x="530" y="530" as="targetPoint" />
          </mxGeometry>
        </mxCell>
        <mxCell id="9xAP8w53JDJXSFbGVJ0_-2" value="run automation" style="rounded=1;whiteSpace=wrap;html=1;" vertex="1" parent="2yx346TZUJ-6V80JJ5rB-7">
          <mxGeometry x="50" y="500" width="120" height="60" as="geometry" />
        </mxCell>
        <mxCell id="2yx346TZUJ-6V80JJ5rB-17" value="Gitlab Helm Package Registry" style="swimlane;startSize=20;" parent="2yx346TZUJ-6V80JJ5rB-2" vertex="1">
          <mxGeometry x="720" width="250" height="580" as="geometry" />
        </mxCell>
        <mxCell id="dbOSdnvq5_NjDOudlwMf-10" value="" style="group" parent="2yx346TZUJ-6V80JJ5rB-17" vertex="1" connectable="0">
          <mxGeometry x="70" y="35" width="90" height="50" as="geometry" />
        </mxCell>
        <mxCell id="dbOSdnvq5_NjDOudlwMf-8" value="" style="shape=cube;whiteSpace=wrap;html=1;boundedLbl=1;backgroundOutline=1;darkOpacity=0.05;darkOpacity2=0.1;size=10;" parent="dbOSdnvq5_NjDOudlwMf-10" vertex="1">
          <mxGeometry width="90" height="50" as="geometry" />
        </mxCell>
        <mxCell id="dbOSdnvq5_NjDOudlwMf-9" value="" style="shape=image;verticalLabelPosition=bottom;labelBackgroundColor=default;verticalAlign=top;aspect=fixed;imageAspect=0;image=https://helm.sh/img/helm.svg;" parent="dbOSdnvq5_NjDOudlwMf-10" vertex="1">
          <mxGeometry x="33" y="15" width="27.606250000000003" height="31.875" as="geometry" />
        </mxCell>
        <mxCell id="dbOSdnvq5_NjDOudlwMf-12" value="" style="group" parent="2yx346TZUJ-6V80JJ5rB-17" vertex="1" connectable="0">
          <mxGeometry x="70" y="125" width="90" height="50" as="geometry" />
        </mxCell>
        <mxCell id="dbOSdnvq5_NjDOudlwMf-13" value="" style="shape=cube;whiteSpace=wrap;html=1;boundedLbl=1;backgroundOutline=1;darkOpacity=0.05;darkOpacity2=0.1;size=10;" parent="dbOSdnvq5_NjDOudlwMf-12" vertex="1">
          <mxGeometry width="90" height="50" as="geometry" />
        </mxCell>
        <mxCell id="dbOSdnvq5_NjDOudlwMf-14" value="" style="shape=image;verticalLabelPosition=bottom;labelBackgroundColor=default;verticalAlign=top;aspect=fixed;imageAspect=0;image=https://helm.sh/img/helm.svg;" parent="dbOSdnvq5_NjDOudlwMf-12" vertex="1">
          <mxGeometry x="33" y="15" width="27.606250000000003" height="31.875" as="geometry" />
        </mxCell>
        <mxCell id="dbOSdnvq5_NjDOudlwMf-16" value="" style="group" parent="2yx346TZUJ-6V80JJ5rB-17" vertex="1" connectable="0">
          <mxGeometry x="70" y="215" width="90" height="50" as="geometry" />
        </mxCell>
        <mxCell id="dbOSdnvq5_NjDOudlwMf-17" value="" style="shape=cube;whiteSpace=wrap;html=1;boundedLbl=1;backgroundOutline=1;darkOpacity=0.05;darkOpacity2=0.1;size=10;" parent="dbOSdnvq5_NjDOudlwMf-16" vertex="1">
          <mxGeometry width="90" height="50" as="geometry" />
        </mxCell>
        <mxCell id="dbOSdnvq5_NjDOudlwMf-18" value="" style="shape=image;verticalLabelPosition=bottom;labelBackgroundColor=default;verticalAlign=top;aspect=fixed;imageAspect=0;image=https://helm.sh/img/helm.svg;" parent="dbOSdnvq5_NjDOudlwMf-16" vertex="1">
          <mxGeometry x="33" y="15" width="27.606250000000003" height="31.875" as="geometry" />
        </mxCell>
        <mxCell id="2yx346TZUJ-6V80JJ5rB-21" style="edgeStyle=orthogonalEdgeStyle;rounded=0;orthogonalLoop=1;jettySize=auto;html=1;" parent="2yx346TZUJ-6V80JJ5rB-2" source="2yx346TZUJ-6V80JJ5rB-4" target="2yx346TZUJ-6V80JJ5rB-6" edge="1">
          <mxGeometry relative="1" as="geometry" />
        </mxCell>
        <mxCell id="2yx346TZUJ-6V80JJ5rB-22" style="edgeStyle=orthogonalEdgeStyle;rounded=0;orthogonalLoop=1;jettySize=auto;html=1;" parent="2yx346TZUJ-6V80JJ5rB-2" source="2yx346TZUJ-6V80JJ5rB-6" target="2yx346TZUJ-6V80JJ5rB-9" edge="1">
          <mxGeometry relative="1" as="geometry" />
        </mxCell>
        <mxCell id="2yx346TZUJ-6V80JJ5rB-19" value="minikube on build server" style="swimlane;startSize=20;" parent="2yx346TZUJ-6V80JJ5rB-2" vertex="1">
          <mxGeometry x="970" width="230" height="580" as="geometry" />
        </mxCell>
        <mxCell id="dbOSdnvq5_NjDOudlwMf-19" value="Uninstall fintrust-data, fintrust-apps-allfunds helm charts" style="rounded=1;whiteSpace=wrap;html=1;" parent="2yx346TZUJ-6V80JJ5rB-19" vertex="1">
          <mxGeometry x="55" y="300" width="120" height="60" as="geometry" />
        </mxCell>
        <mxCell id="bylwXaz0VcdVEE2ZYzo4-0" value="Install fintrust-data,finturst-apps-allfunds helm charts" style="rounded=1;whiteSpace=wrap;html=1;" vertex="1" parent="2yx346TZUJ-6V80JJ5rB-19">
          <mxGeometry x="55" y="400" width="120" height="60" as="geometry" />
        </mxCell>
        <mxCell id="9xAP8w53JDJXSFbGVJ0_-0" value="Install fintrust-data, fintrust-apps-allfunds helm charts" style="rounded=1;whiteSpace=wrap;html=1;" vertex="1" parent="2yx346TZUJ-6V80JJ5rB-19">
          <mxGeometry x="55" y="390" width="120" height="60" as="geometry" />
        </mxCell>
        <mxCell id="Bo-WcGxQgcAu5vg0nvHs-0" value="Run the karate testsuite&amp;nbsp;" style="rounded=1;whiteSpace=wrap;html=1;" vertex="1" parent="2yx346TZUJ-6V80JJ5rB-19">
          <mxGeometry x="55" y="500" width="120" height="60" as="geometry" />
        </mxCell>
        <mxCell id="9xAP8w53JDJXSFbGVJ0_-3" value="Run karate automation testsuite" style="rounded=1;whiteSpace=wrap;html=1;" vertex="1" parent="2yx346TZUJ-6V80JJ5rB-19">
          <mxGeometry x="55" y="500" width="120" height="60" as="geometry" />
        </mxCell>
        <mxCell id="2yx346TZUJ-6V80JJ5rB-23" value="artifacts" style="swimlane;startSize=20;" parent="2yx346TZUJ-6V80JJ5rB-2" vertex="1">
          <mxGeometry x="1200" width="230" height="580" as="geometry" />
        </mxCell>
        <mxCell id="kdjLoPQ_7MpSCEX9zXl3-0" value="Automation Summary Report" style="shape=document;whiteSpace=wrap;html=1;boundedLbl=1;" vertex="1" parent="2yx346TZUJ-6V80JJ5rB-23">
          <mxGeometry x="67.5" y="495" width="102.5" height="70" as="geometry" />
        </mxCell>
        <mxCell id="9xAP8w53JDJXSFbGVJ0_-7" value="Automation summary Report" style="shape=document;whiteSpace=wrap;html=1;boundedLbl=1;" vertex="1" parent="2yx346TZUJ-6V80JJ5rB-23">
          <mxGeometry x="70" y="500" width="102.5" height="70" as="geometry" />
        </mxCell>
        <mxCell id="9xAP8w53JDJXSFbGVJ0_-8" style="edgeStyle=orthogonalEdgeStyle;rounded=0;orthogonalLoop=1;jettySize=auto;html=1;exitX=1;exitY=0.5;exitDx=0;exitDy=0;" edge="1" parent="2yx346TZUJ-6V80JJ5rB-23" source="9xAP8w53JDJXSFbGVJ0_-3">
          <mxGeometry relative="1" as="geometry">
            <mxPoint x="70" y="529.5" as="targetPoint" />
            <mxPoint x="-50" y="530" as="sourcePoint" />
          </mxGeometry>
        </mxCell>
        <mxCell id="dbOSdnvq5_NjDOudlwMf-4" style="edgeStyle=orthogonalEdgeStyle;rounded=0;orthogonalLoop=1;jettySize=auto;html=1;exitX=1;exitY=0.5;exitDx=0;exitDy=0;" parent="2yx346TZUJ-6V80JJ5rB-2" source="2yx346TZUJ-6V80JJ5rB-9" target="dbOSdnvq5_NjDOudlwMf-8" edge="1">
          <mxGeometry relative="1" as="geometry">
            <mxPoint x="800" y="60" as="targetPoint" />
          </mxGeometry>
        </mxCell>
        <mxCell id="dbOSdnvq5_NjDOudlwMf-5" style="edgeStyle=orthogonalEdgeStyle;rounded=0;orthogonalLoop=1;jettySize=auto;html=1;exitX=1;exitY=0.5;exitDx=0;exitDy=0;" parent="2yx346TZUJ-6V80JJ5rB-2" source="2yx346TZUJ-6V80JJ5rB-11" target="dbOSdnvq5_NjDOudlwMf-13" edge="1">
          <mxGeometry relative="1" as="geometry">
            <mxPoint x="800" y="150" as="targetPoint" />
          </mxGeometry>
        </mxCell>
        <mxCell id="dbOSdnvq5_NjDOudlwMf-7" style="edgeStyle=orthogonalEdgeStyle;rounded=0;orthogonalLoop=1;jettySize=auto;html=1;exitX=1;exitY=0.5;exitDx=0;exitDy=0;" parent="2yx346TZUJ-6V80JJ5rB-2" source="2yx346TZUJ-6V80JJ5rB-13" target="dbOSdnvq5_NjDOudlwMf-17" edge="1">
          <mxGeometry relative="1" as="geometry">
            <mxPoint x="800" y="240" as="targetPoint" />
          </mxGeometry>
        </mxCell>
        <mxCell id="dbOSdnvq5_NjDOudlwMf-20" style="edgeStyle=orthogonalEdgeStyle;rounded=0;orthogonalLoop=1;jettySize=auto;html=1;" parent="2yx346TZUJ-6V80JJ5rB-2" source="2yx346TZUJ-6V80JJ5rB-15" target="dbOSdnvq5_NjDOudlwMf-19" edge="1">
          <mxGeometry relative="1" as="geometry" />
        </mxCell>
        <mxCell id="Bo-WcGxQgcAu5vg0nvHs-1" style="edgeStyle=orthogonalEdgeStyle;rounded=0;orthogonalLoop=1;jettySize=auto;html=1;entryX=0;entryY=0.5;entryDx=0;entryDy=0;" edge="1" parent="2yx346TZUJ-6V80JJ5rB-2" source="bylwXaz0VcdVEE2ZYzo4-2" target="Bo-WcGxQgcAu5vg0nvHs-0">
          <mxGeometry relative="1" as="geometry" />
        </mxCell>
        <mxCell id="9xAP8w53JDJXSFbGVJ0_-5" style="edgeStyle=orthogonalEdgeStyle;rounded=0;orthogonalLoop=1;jettySize=auto;html=1;entryX=0;entryY=0.5;entryDx=0;entryDy=0;" edge="1" parent="2yx346TZUJ-6V80JJ5rB-2" source="2yx346TZUJ-6V80JJ5rB-16" target="9xAP8w53JDJXSFbGVJ0_-0">
          <mxGeometry relative="1" as="geometry" />
        </mxCell>
        <mxCell id="Bo-WcGxQgcAu5vg0nvHs-2" style="edgeStyle=orthogonalEdgeStyle;rounded=0;orthogonalLoop=1;jettySize=auto;html=1;entryX=0;entryY=0.5;entryDx=0;entryDy=0;" edge="1" parent="2yx346TZUJ-6V80JJ5rB-2" source="2yx346TZUJ-6V80JJ5rB-16" target="bylwXaz0VcdVEE2ZYzo4-0">
          <mxGeometry relative="1" as="geometry" />
        </mxCell>
        <mxCell id="kdjLoPQ_7MpSCEX9zXl3-1" style="edgeStyle=orthogonalEdgeStyle;rounded=0;orthogonalLoop=1;jettySize=auto;html=1;entryX=0;entryY=0.5;entryDx=0;entryDy=0;" edge="1" parent="2yx346TZUJ-6V80JJ5rB-2" source="Bo-WcGxQgcAu5vg0nvHs-0" target="kdjLoPQ_7MpSCEX9zXl3-0">
          <mxGeometry relative="1" as="geometry" />
        </mxCell>
      </root>
    </mxGraphModel>
  </diagram>
  <diagram name="cd-flow" id="GECycAzRj7Of5lepdmbi">
    <mxGraphModel dx="1036" dy="614" grid="1" gridSize="10" guides="1" tooltips="1" connect="1" arrows="1" fold="1" page="1" pageScale="1" pageWidth="850" pageHeight="1100" math="0" shadow="0">
      <root>
        <mxCell id="Pbj9qr9YIV28MrfAh5HE-0" />
        <mxCell id="Pbj9qr9YIV28MrfAh5HE-1" parent="Pbj9qr9YIV28MrfAh5HE-0" />
        <mxCell id="Pbj9qr9YIV28MrfAh5HE-2" value="Pool" style="swimlane;childLayout=stackLayout;resizeParent=1;resizeParentMax=0;startSize=20;horizontal=0;horizontalStack=1;" parent="Pbj9qr9YIV28MrfAh5HE-1" vertex="1">
          <mxGeometry x="60" y="30" width="1050" height="780" as="geometry" />
        </mxCell>
        <mxCell id="Pbj9qr9YIV28MrfAh5HE-5" value="gitlab" style="swimlane;startSize=20;" parent="Pbj9qr9YIV28MrfAh5HE-2" vertex="1">
          <mxGeometry x="20" width="230" height="780" as="geometry" />
        </mxCell>
        <mxCell id="KJUuj7X7cgf4k3idDyx5-0" style="edgeStyle=orthogonalEdgeStyle;rounded=0;orthogonalLoop=1;jettySize=auto;html=1;entryX=0.5;entryY=0;entryDx=0;entryDy=0;" edge="1" parent="Pbj9qr9YIV28MrfAh5HE-5" source="Pbj9qr9YIV28MrfAh5HE-6" target="ffD7ZgxrkPBf7CRHqscK-40">
          <mxGeometry relative="1" as="geometry" />
        </mxCell>
        <mxCell id="Pbj9qr9YIV28MrfAh5HE-6" value="Manual trigger of dev CD pipeline" style="rounded=1;whiteSpace=wrap;html=1;" parent="Pbj9qr9YIV28MrfAh5HE-5" vertex="1">
          <mxGeometry x="60" y="30" width="120" height="60" as="geometry" />
        </mxCell>
        <mxCell id="KJUuj7X7cgf4k3idDyx5-4" style="edgeStyle=orthogonalEdgeStyle;rounded=0;orthogonalLoop=1;jettySize=auto;html=1;entryX=0.5;entryY=0;entryDx=0;entryDy=0;" edge="1" parent="Pbj9qr9YIV28MrfAh5HE-5" source="z07Dki7KbXF9F-BD3o9e-7" target="q7vF7__tze8UBa8wn5oJ-2">
          <mxGeometry relative="1" as="geometry" />
        </mxCell>
        <mxCell id="z07Dki7KbXF9F-BD3o9e-7" value="Manual trigger of staging CD pipeline" style="rounded=1;whiteSpace=wrap;html=1;" vertex="1" parent="Pbj9qr9YIV28MrfAh5HE-5">
          <mxGeometry x="60" y="440" width="120" height="70" as="geometry" />
        </mxCell>
        <mxCell id="KJUuj7X7cgf4k3idDyx5-6" style="edgeStyle=orthogonalEdgeStyle;rounded=0;orthogonalLoop=1;jettySize=auto;html=1;" edge="1" parent="Pbj9qr9YIV28MrfAh5HE-5" source="ffD7ZgxrkPBf7CRHqscK-40">
          <mxGeometry relative="1" as="geometry">
            <mxPoint x="310" y="150" as="targetPoint" />
          </mxGeometry>
        </mxCell>
        <mxCell id="ffD7ZgxrkPBf7CRHqscK-40" value="Install fintrust-apps-allfunds helmchart" style="rounded=1;whiteSpace=wrap;html=1;" vertex="1" parent="Pbj9qr9YIV28MrfAh5HE-5">
          <mxGeometry x="60" y="120" width="120" height="60" as="geometry" />
        </mxCell>
        <mxCell id="KJUuj7X7cgf4k3idDyx5-2" style="edgeStyle=orthogonalEdgeStyle;rounded=0;orthogonalLoop=1;jettySize=auto;html=1;entryX=0.5;entryY=0;entryDx=0;entryDy=0;" edge="1" parent="Pbj9qr9YIV28MrfAh5HE-5" source="ffD7ZgxrkPBf7CRHqscK-42" target="-SmMv9HVqorrz8PyElwv-0">
          <mxGeometry relative="1" as="geometry" />
        </mxCell>
        <mxCell id="KJUuj7X7cgf4k3idDyx5-7" style="edgeStyle=orthogonalEdgeStyle;rounded=0;orthogonalLoop=1;jettySize=auto;html=1;" edge="1" parent="Pbj9qr9YIV28MrfAh5HE-5" source="ffD7ZgxrkPBf7CRHqscK-42">
          <mxGeometry relative="1" as="geometry">
            <mxPoint x="310" y="245" as="targetPoint" />
          </mxGeometry>
        </mxCell>
        <mxCell id="ffD7ZgxrkPBf7CRHqscK-42" value="Install fintrust-apps-accounting helmchart" style="rounded=1;whiteSpace=wrap;html=1;" vertex="1" parent="Pbj9qr9YIV28MrfAh5HE-5">
          <mxGeometry x="60" y="210" width="120" height="70" as="geometry" />
        </mxCell>
        <mxCell id="ffD7ZgxrkPBf7CRHqscK-43" style="edgeStyle=orthogonalEdgeStyle;rounded=0;orthogonalLoop=1;jettySize=auto;html=1;" edge="1" parent="Pbj9qr9YIV28MrfAh5HE-5" source="ffD7ZgxrkPBf7CRHqscK-40" target="ffD7ZgxrkPBf7CRHqscK-42">
          <mxGeometry relative="1" as="geometry" />
        </mxCell>
        <mxCell id="KJUuj7X7cgf4k3idDyx5-3" value="" style="edgeStyle=orthogonalEdgeStyle;rounded=0;orthogonalLoop=1;jettySize=auto;html=1;" edge="1" parent="Pbj9qr9YIV28MrfAh5HE-5" source="-SmMv9HVqorrz8PyElwv-0" target="z07Dki7KbXF9F-BD3o9e-7">
          <mxGeometry relative="1" as="geometry">
            <Array as="points">
              <mxPoint x="120" y="430" />
              <mxPoint x="120" y="430" />
            </Array>
          </mxGeometry>
        </mxCell>
        <mxCell id="-SmMv9HVqorrz8PyElwv-0" value="Run Smoke tests" style="rounded=1;whiteSpace=wrap;html=1;" vertex="1" parent="Pbj9qr9YIV28MrfAh5HE-5">
          <mxGeometry x="60" y="320" width="120" height="70" as="geometry" />
        </mxCell>
        <mxCell id="KJUuj7X7cgf4k3idDyx5-5" style="edgeStyle=orthogonalEdgeStyle;rounded=0;orthogonalLoop=1;jettySize=auto;html=1;entryX=0.5;entryY=0;entryDx=0;entryDy=0;" edge="1" parent="Pbj9qr9YIV28MrfAh5HE-5" source="q7vF7__tze8UBa8wn5oJ-2" target="q7vF7__tze8UBa8wn5oJ-4">
          <mxGeometry relative="1" as="geometry" />
        </mxCell>
        <mxCell id="q7vF7__tze8UBa8wn5oJ-2" value="Install fintrust-apps-allfunds helmchart" style="rounded=1;whiteSpace=wrap;html=1;" vertex="1" parent="Pbj9qr9YIV28MrfAh5HE-5">
          <mxGeometry x="60" y="560" width="120" height="70" as="geometry" />
        </mxCell>
        <mxCell id="q7vF7__tze8UBa8wn5oJ-4" value="Install fintrust-apps-accounting helmchart" style="rounded=1;whiteSpace=wrap;html=1;" vertex="1" parent="Pbj9qr9YIV28MrfAh5HE-5">
          <mxGeometry x="60" y="680" width="120" height="70" as="geometry" />
        </mxCell>
        <mxCell id="Pbj9qr9YIV28MrfAh5HE-7" value="GitLab Helm Package Registry" style="swimlane;startSize=20;" parent="Pbj9qr9YIV28MrfAh5HE-2" vertex="1">
          <mxGeometry x="250" width="280" height="780" as="geometry" />
        </mxCell>
        <mxCell id="cOOjJbp61nC0QpcBgbbF-0" value="" style="shape=cube;whiteSpace=wrap;html=1;boundedLbl=1;backgroundOutline=1;darkOpacity=0.05;darkOpacity2=0.1;size=10;" vertex="1" parent="Pbj9qr9YIV28MrfAh5HE-7">
          <mxGeometry x="81.19" y="120" width="90" height="60" as="geometry" />
        </mxCell>
        <mxCell id="cOOjJbp61nC0QpcBgbbF-2" value="" style="shape=cube;whiteSpace=wrap;html=1;boundedLbl=1;backgroundOutline=1;darkOpacity=0.05;darkOpacity2=0.1;size=10;" vertex="1" parent="Pbj9qr9YIV28MrfAh5HE-7">
          <mxGeometry x="81.2" y="210" width="90" height="62.8" as="geometry" />
        </mxCell>
        <mxCell id="z07Dki7KbXF9F-BD3o9e-0" value="" style="shape=image;verticalLabelPosition=bottom;labelBackgroundColor=default;verticalAlign=top;aspect=fixed;imageAspect=0;image=https://helm.sh/img/helm.svg;" vertex="1" parent="Pbj9qr9YIV28MrfAh5HE-7">
          <mxGeometry x="112.4" y="140" width="27.6" height="31.87" as="geometry" />
        </mxCell>
        <mxCell id="z07Dki7KbXF9F-BD3o9e-1" value="" style="shape=image;verticalLabelPosition=bottom;labelBackgroundColor=default;verticalAlign=top;aspect=fixed;imageAspect=0;image=https://helm.sh/img/helm.svg;" vertex="1" parent="Pbj9qr9YIV28MrfAh5HE-7">
          <mxGeometry x="112.39999999999999" y="225.45999999999998" width="27.606250000000003" height="31.875" as="geometry" />
        </mxCell>
        <mxCell id="z07Dki7KbXF9F-BD3o9e-9" value="" style="shape=cube;whiteSpace=wrap;html=1;boundedLbl=1;backgroundOutline=1;darkOpacity=0.05;darkOpacity2=0.1;size=10;" vertex="1" parent="Pbj9qr9YIV28MrfAh5HE-7">
          <mxGeometry x="68.8" y="570" width="90" height="60" as="geometry" />
        </mxCell>
        <mxCell id="z07Dki7KbXF9F-BD3o9e-8" value="" style="shape=cube;whiteSpace=wrap;html=1;boundedLbl=1;backgroundOutline=1;darkOpacity=0.05;darkOpacity2=0.1;size=10;" vertex="1" parent="Pbj9qr9YIV28MrfAh5HE-7">
          <mxGeometry x="70" y="680" width="90" height="60" as="geometry" />
        </mxCell>
        <mxCell id="z07Dki7KbXF9F-BD3o9e-12" value="" style="shape=image;verticalLabelPosition=bottom;labelBackgroundColor=default;verticalAlign=top;aspect=fixed;imageAspect=0;image=https://helm.sh/img/helm.svg;" vertex="1" parent="Pbj9qr9YIV28MrfAh5HE-7">
          <mxGeometry x="100.00000000000001" y="700" width="27.6" height="31.87" as="geometry" />
        </mxCell>
        <mxCell id="z07Dki7KbXF9F-BD3o9e-11" value="" style="shape=image;verticalLabelPosition=bottom;labelBackgroundColor=default;verticalAlign=top;aspect=fixed;imageAspect=0;image=https://helm.sh/img/helm.svg;" vertex="1" parent="Pbj9qr9YIV28MrfAh5HE-7">
          <mxGeometry x="98.49000000000001" y="590" width="29.11" height="33.61" as="geometry" />
        </mxCell>
        <mxCell id="P2yq47dn0qb3YDfIZrT6-0" value="Minikube on DEV Server" style="swimlane;startSize=20;" vertex="1" parent="Pbj9qr9YIV28MrfAh5HE-2">
          <mxGeometry x="530" width="260" height="780" as="geometry" />
        </mxCell>
        <mxCell id="z07Dki7KbXF9F-BD3o9e-6" value="DEV environment" style="rounded=1;whiteSpace=wrap;html=1;" vertex="1" parent="P2yq47dn0qb3YDfIZrT6-0">
          <mxGeometry x="70" y="210.00000000000003" width="120" height="60" as="geometry" />
        </mxCell>
        <mxCell id="5Shs1URVeSlh4JKcPM5a-5" value="AWS EKS Cluster" style="swimlane;startSize=20;" vertex="1" parent="Pbj9qr9YIV28MrfAh5HE-2">
          <mxGeometry x="790" width="260" height="780" as="geometry" />
        </mxCell>
        <mxCell id="5Shs1URVeSlh4JKcPM5a-6" value="Staging Environment" style="rounded=1;whiteSpace=wrap;html=1;" vertex="1" parent="5Shs1URVeSlh4JKcPM5a-5">
          <mxGeometry x="70" y="623.61" width="120" height="60" as="geometry" />
        </mxCell>
        <mxCell id="KJUuj7X7cgf4k3idDyx5-8" style="edgeStyle=orthogonalEdgeStyle;rounded=0;orthogonalLoop=1;jettySize=auto;html=1;entryX=0;entryY=0;entryDx=0;entryDy=25;entryPerimeter=0;" edge="1" parent="Pbj9qr9YIV28MrfAh5HE-2" source="q7vF7__tze8UBa8wn5oJ-2" target="z07Dki7KbXF9F-BD3o9e-9">
          <mxGeometry relative="1" as="geometry" />
        </mxCell>
        <mxCell id="KJUuj7X7cgf4k3idDyx5-9" style="edgeStyle=orthogonalEdgeStyle;rounded=0;orthogonalLoop=1;jettySize=auto;html=1;entryX=-0.036;entryY=0.577;entryDx=0;entryDy=0;entryPerimeter=0;" edge="1" parent="Pbj9qr9YIV28MrfAh5HE-2" source="q7vF7__tze8UBa8wn5oJ-4" target="z07Dki7KbXF9F-BD3o9e-8">
          <mxGeometry relative="1" as="geometry" />
        </mxCell>
        <mxCell id="KJUuj7X7cgf4k3idDyx5-10" style="edgeStyle=orthogonalEdgeStyle;rounded=0;orthogonalLoop=1;jettySize=auto;html=1;entryX=0.5;entryY=0;entryDx=0;entryDy=0;" edge="1" parent="Pbj9qr9YIV28MrfAh5HE-2" source="cOOjJbp61nC0QpcBgbbF-0" target="z07Dki7KbXF9F-BD3o9e-6">
          <mxGeometry relative="1" as="geometry" />
        </mxCell>
        <mxCell id="KJUuj7X7cgf4k3idDyx5-11" style="edgeStyle=orthogonalEdgeStyle;rounded=0;orthogonalLoop=1;jettySize=auto;html=1;entryX=0;entryY=0.5;entryDx=0;entryDy=0;" edge="1" parent="Pbj9qr9YIV28MrfAh5HE-2" source="cOOjJbp61nC0QpcBgbbF-2" target="z07Dki7KbXF9F-BD3o9e-6">
          <mxGeometry relative="1" as="geometry" />
        </mxCell>
        <mxCell id="KJUuj7X7cgf4k3idDyx5-12" style="edgeStyle=orthogonalEdgeStyle;rounded=0;orthogonalLoop=1;jettySize=auto;html=1;entryX=0.5;entryY=1;entryDx=0;entryDy=0;" edge="1" parent="Pbj9qr9YIV28MrfAh5HE-2" source="-SmMv9HVqorrz8PyElwv-0" target="z07Dki7KbXF9F-BD3o9e-6">
          <mxGeometry relative="1" as="geometry" />
        </mxCell>
        <mxCell id="KJUuj7X7cgf4k3idDyx5-13" style="edgeStyle=orthogonalEdgeStyle;rounded=0;orthogonalLoop=1;jettySize=auto;html=1;entryX=0.5;entryY=0;entryDx=0;entryDy=0;" edge="1" parent="Pbj9qr9YIV28MrfAh5HE-2" source="z07Dki7KbXF9F-BD3o9e-9" target="5Shs1URVeSlh4JKcPM5a-6">
          <mxGeometry relative="1" as="geometry" />
        </mxCell>
        <mxCell id="KJUuj7X7cgf4k3idDyx5-14" style="edgeStyle=orthogonalEdgeStyle;rounded=0;orthogonalLoop=1;jettySize=auto;html=1;entryX=0.5;entryY=1;entryDx=0;entryDy=0;" edge="1" parent="Pbj9qr9YIV28MrfAh5HE-2" source="z07Dki7KbXF9F-BD3o9e-8" target="5Shs1URVeSlh4JKcPM5a-6">
          <mxGeometry relative="1" as="geometry" />
        </mxCell>
      </root>
    </mxGraphModel>
  </diagram>
</mxfile>
